SplineFontDB: 3.2
FontName: aghtex_mathcal_light
FullName: aghtex_mathcal_light
FamilyName: aghtex_mathcal
Weight: Light
Copyright: Copyright (C) 2012 KM, 1997, 2009 American Mathematical Society (<http://www.ams.org>), with Reserved Font Name CMSY5.
Version: 3.2.0.1
ItalicAngle: -14.04
UnderlinePosition: -100
UnderlineWidth: 50
Ascent: 819
Descent: 205
InvalidEm: 0
LayerCount: 2
Layer: 0 1 "+gMyXYgAA" 1
Layer: 1 1 "+Uk2XYgAA" 0
UniqueID: 5096646
FSType: 8
OS2Version: 1
OS2_WeightWidthSlopeOnly: 0
OS2_UseTypoMetrics: 0
CreationTime: 1344259763
ModificationTime: 1575819806
PfmFamily: 17
TTFWeight: 300
TTFWidth: 5
LineGap: 92
VLineGap: 0
OS2TypoAscent: 0
OS2TypoAOffset: 1
OS2TypoDescent: 0
OS2TypoDOffset: 1
OS2TypoLinegap: 92
OS2WinAscent: 0
OS2WinAOffset: 1
OS2WinDescent: 0
OS2WinDOffset: 1
HheadAscent: 0
HheadAOffset: 1
HheadDescent: 0
HheadDOffset: 1
OS2Vendor: 'PfEd'
MarkAttachClasses: 1
DEI: 91125
ShortTable: maxp 16
  0
  0
  0
  0
  0
  0
  0
  2
  1
  2
  22
  0
  256
  0
  0
  0
EndShort
TtTable: prep
PUSHW_1
 511
SCANCTRL
PUSHB_1
 1
SCANTYPE
SVTCA[y-axis]
MPPEM
PUSHB_1
 8
LT
IF
PUSHB_2
 1
 1
INSTCTRL
EIF
PUSHB_2
 70
 6
CALL
IF
POP
PUSHB_1
 16
EIF
MPPEM
PUSHB_1
 20
GT
IF
POP
PUSHB_1
 128
EIF
SCVTCI
PUSHB_1
 6
CALL
NOT
IF
SVTCA[y-axis]
PUSHB_1
 3
DUP
RCVT
PUSHB_1
 3
CALL
WCVTP
PUSHB_1
 4
DUP
RCVT
PUSHB_3
 3
 27
 2
CALL
PUSHB_1
 3
CALL
WCVTP
SVTCA[x-axis]
PUSHB_1
 5
DUP
RCVT
PUSHB_1
 3
CALL
WCVTP
PUSHB_1
 6
DUP
RCVT
PUSHB_3
 5
 27
 2
CALL
PUSHB_2
 3
 70
SROUND
CALL
WCVTP
EIF
PUSHB_1
 20
CALL
EndTTInstrs
TtTable: fpgm
PUSHB_1
 0
FDEF
PUSHB_1
 0
SZP0
MPPEM
PUSHB_1
 42
LT
IF
PUSHB_1
 74
SROUND
EIF
PUSHB_1
 0
SWAP
MIAP[rnd]
RTG
PUSHB_1
 6
CALL
IF
RTDG
EIF
MPPEM
PUSHB_1
 42
LT
IF
RDTG
EIF
DUP
MDRP[rp0,rnd,grey]
PUSHB_1
 1
SZP0
MDAP[no-rnd]
RTG
ENDF
PUSHB_1
 1
FDEF
DUP
MDRP[rp0,min,white]
PUSHB_1
 12
CALL
ENDF
PUSHB_1
 2
FDEF
MPPEM
GT
IF
RCVT
SWAP
EIF
POP
ENDF
PUSHB_1
 3
FDEF
ROUND[Black]
RTG
DUP
PUSHB_1
 64
LT
IF
POP
PUSHB_1
 64
EIF
ENDF
PUSHB_1
 4
FDEF
PUSHB_1
 6

StartChar: A
Encoding: 65 65 0
Width: 798
VWidth: 1000
Flags: W
HStem: -50 92<92.5036 167.526> -30 55<665.5 749.518> 165 55<350.814 590>
VStem: 575 85<376.586 599>
LayerCount: 2
Fore
SplineSet
595 165 m 1,0,-1
 323 165 l 1,1,2
 308 140 308 140 290 114.5 c 128,-1,3
 272 89 272 89 239 46.5 c 128,-1,4
 206 4 206 4 173.5 -23 c 128,-1,5
 141 -50 141 -50 117 -50 c 0,6,7
 82 -50 82 -50 54.5 -23.5 c 128,-1,8
 27 3 27 3 27 34 c 0,9,10
 27 55 27 55 40 82.5 c 128,-1,11
 53 110 53 110 64 110 c 0,12,13
 67 110 67 110 71 102 c 0,14,15
 78 75 78 75 99 58.5 c 128,-1,16
 120 42 120 42 148 42 c 0,17,18
 167 42 167 42 194 65.5 c 128,-1,19
 221 89 221 89 257 138 c 128,-1,20
 293 187 293 187 311.5 214.5 c 128,-1,21
 330 242 330 242 365 296 c 0,22,23
 481 477 481 477 570 667 c 1,24,-1
 577 678 l 2,25,26
 589 696 589 696 613 709 c 128,-1,27
 637 722 637 722 650 722 c 0,28,29
 658 722 658 722 659.5 718.5 c 128,-1,30
 661 715 661 715 661 702 c 0,31,32
 661 690 661 690 660.5 665 c 128,-1,33
 660 640 660 640 660 628 c 0,34,35
 660 482 660 482 671 322 c 0,36,37
 679 188 679 188 695 112 c 0,38,39
 705 61 705 61 713.5 43 c 128,-1,40
 722 25 722 25 741 25 c 0,41,42
 745 25 745 25 752 29 c 0,43,44
 772 42 772 42 789 42 c 0,45,46
 798 42 798 42 798 35 c 0,47,48
 798 19 798 19 753.5 -5.5 c 128,-1,49
 709 -30 709 -30 676 -30 c 0,50,51
 655 -30 655 -30 643.5 -21.5 c 128,-1,52
 632 -13 632 -13 628 -2 c 128,-1,53
 624 9 624 9 617 37 c 0,54,55
 600 101 600 101 595 165 c 1,0,-1
575 599 m 1,56,-1
 574 599 l 1,57,58
 492 440 492 440 484 427 c 0,59,60
 428 324 428 324 350 204 c 1,61,62
 376 220 376 220 407 220 c 2,63,-1
 590 220 l 1,64,65
 584 277 584 277 580 367 c 0,66,67
 575 464 575 464 575 541 c 2,68,-1
 575 599 l 1,56,-1
EndSplineSet
Validated: 19457
EndChar

StartChar: B
Encoding: 66 66 1
Width: 656
VWidth: 1000
Flags: W
HStem: -22 55<259.104 408.092> 651 55<435.9 546.516>
VStem: 541 85<151.058 275.319> 580 85<532.161 618.847>
LayerCount: 2
Fore
SplineSet
280 679 m 2,0,-1
 260 547 l 1,1,2
 302 599 302 599 348.5 634.5 c 128,-1,3
 395 670 395 670 435.5 683.5 c 128,-1,4
 476 697 476 697 499.5 701.5 c 128,-1,5
 523 706 523 706 543 706 c 0,6,7
 598 706 598 706 631.5 677.5 c 128,-1,8
 665 649 665 649 665 605 c 0,9,10
 665 542 665 542 605 490 c 128,-1,11
 545 438 545 438 468 405 c 1,12,13
 544 391 544 391 585 347 c 128,-1,14
 626 303 626 303 626 239 c 0,15,16
 626 163 626 163 567.5 101 c 128,-1,17
 509 39 509 39 430.5 8.5 c 128,-1,18
 352 -22 352 -22 278 -22 c 0,19,20
 230 -22 230 -22 193.5 -4.5 c 128,-1,21
 157 13 157 13 144 28 c 128,-1,22
 131 43 131 43 131 47 c 0,23,24
 131 60 131 60 159 78 c 128,-1,25
 187 96 187 96 204 96 c 0,26,27
 211 96 211 96 217 89 c 0,28,29
 269 33 269 33 344 33 c 0,30,31
 424 33 424 33 482.5 72.5 c 128,-1,32
 541 112 541 112 541 197 c 0,33,34
 541 267 541 267 488.5 309.5 c 128,-1,35
 436 352 436 352 358 352 c 0,36,37
 349 352 349 352 338 351 c 128,-1,38
 327 350 327 350 319 349 c 128,-1,39
 311 348 311 348 310 348 c 0,40,41
 300 348 300 348 300 355 c 0,42,43
 300 381 300 381 381 408 c 0,44,45
 415 420 415 420 432.5 426 c 128,-1,46
 450 432 450 432 478 444 c 128,-1,47
 506 456 506 456 520.5 466 c 128,-1,48
 535 476 535 476 551 491 c 128,-1,49
 567 506 567 506 573.5 524 c 128,-1,50
 580 542 580 542 580 563 c 0,51,52
 580 602 580 602 549.5 626.5 c 128,-1,53
 519 651 519 651 477 651 c 0,54,55
 431 651 431 651 396 628.5 c 128,-1,56
 361 606 361 606 326 556 c 0,57,58
 248 443 248 443 195 236 c 0,59,60
 162 109 162 109 114 24 c 0,61,62
 103 5 103 5 78.5 -8.5 c 128,-1,63
 54 -22 54 -22 40 -22 c 0,64,65
 30 -22 30 -22 30 -15 c 0,66,67
 30 -12 30 -12 35 -3 c 0,68,69
 71 69 71 69 91.5 132.5 c 128,-1,70
 112 196 112 196 140 325 c 0,71,72
 178 507 178 507 194 637 c 1,73,74
 145 614 145 614 137 614 c 0,75,76
 126 614 126 614 126 620 c 128,-1,77
 126 626 126 626 132 633 c 128,-1,78
 138 640 138 640 152 648.5 c 128,-1,79
 166 657 166 657 177 663 c 128,-1,80
 188 669 188 669 210 680 c 0,81,82
 260 705 260 705 271 705 c 128,-1,83
 282 705 282 705 282 695 c 0,84,85
 282 690 282 690 280 679 c 2,0,-1
EndSplineSet
Validated: 19457
EndChar

StartChar: C
Encoding: 67 67 2
Width: 526
VWidth: 1000
Flags: W
HStem: -24 55<185.072 309.517> 650 55<328.157 493.5>
VStem: 12 85<126.418 347.594> 449 85<563.786 673.5>
LayerCount: 2
Fore
SplineSet
496 157 m 0,0,1
 496 146 496 146 472 118 c 128,-1,2
 448 90 448 90 410 57.5 c 128,-1,3
 372 25 372 25 315 0.5 c 128,-1,4
 258 -24 258 -24 202 -24 c 0,5,6
 114 -24 114 -24 63 35.5 c 128,-1,7
 12 95 12 95 12 203 c 0,8,9
 12 241 12 241 18.5 286 c 128,-1,10
 25 331 25 331 57 410 c 128,-1,11
 89 489 89 489 143 554 c 0,12,13
 188 609 188 609 272 657 c 128,-1,14
 356 705 356 705 453 705 c 0,15,16
 534 705 534 705 534 642 c 0,17,18
 534 632 534 632 531 618 c 128,-1,19
 528 604 528 604 522.5 590 c 128,-1,20
 517 576 517 576 511 562 c 128,-1,21
 505 548 505 548 498.5 535 c 128,-1,22
 492 522 492 522 487 512.5 c 128,-1,23
 482 503 482 503 478 496 c 2,24,-1
 474 489 l 2,25,26
 465 477 465 477 442.5 464 c 128,-1,27
 420 451 420 451 405 451 c 0,28,29
 394 451 394 451 394 458 c 0,30,31
 394 462 394 462 400 473 c 0,32,33
 449 555 449 555 449 599 c 0,34,35
 449 650 449 650 387 650 c 0,36,37
 316 650 316 650 270 620 c 128,-1,38
 224 590 224 590 186 534 c 0,39,40
 147 475 147 475 122 394.5 c 128,-1,41
 97 314 97 314 97 246 c 0,42,43
 97 140 97 140 146 85.5 c 128,-1,44
 195 31 195 31 268 31 c 0,45,46
 355 31 355 31 408 112 c 0,47,48
 426 137 426 137 444 149 c 2,49,-1
 447 150 l 2,50,51
 450 152 450 152 454.5 154 c 128,-1,52
 459 156 459 156 464 158.5 c 128,-1,53
 469 161 469 161 475 162.5 c 128,-1,54
 481 164 481 164 486 164 c 0,55,56
 496 164 496 164 496 157 c 0,0,1
EndSplineSet
Validated: 19457
EndChar

StartChar: D
Encoding: 68 68 3
Width: 771
VWidth: 1000
Flags: W
HStem: 0 55<209 354.236> 628 55<210.607 276 355.508 529.431>
VStem: 276 82<475.071 628> 681 85<332.691 504.075>
LayerCount: 2
Fore
SplineSet
204 0 m 2,0,-1
 101 0 l 2,1,2
 85 0 85 0 81.5 1 c 128,-1,3
 78 2 78 2 78 7 c 0,4,5
 78 15 78 15 95.5 29.5 c 128,-1,6
 113 44 113 44 139 53 c 1,7,8
 254 340 254 340 276 628 c 1,9,10
 190 624 190 624 155.5 603.5 c 128,-1,11
 121 583 121 583 108 547 c 0,12,13
 103 532 103 532 98 525 c 128,-1,14
 93 518 93 518 78 508 c 0,15,16
 48 489 48 489 31 489 c 0,17,18
 21 489 21 489 21 497 c 0,19,20
 21 501 21 501 24 510 c 128,-1,21
 27 519 27 519 36.5 536 c 128,-1,22
 46 553 46 553 61.5 571 c 128,-1,23
 77 589 77 589 106.5 609.5 c 128,-1,24
 136 630 136 630 173 647 c 0,25,26
 213 664 213 664 253 672 c 128,-1,27
 293 680 293 680 320.5 681.5 c 128,-1,28
 348 683 348 683 402 683 c 0,29,30
 465 683 465 683 499 681 c 128,-1,31
 533 679 533 679 584 666 c 128,-1,32
 635 653 635 653 675 627 c 0,33,34
 766 569 766 569 766 451 c 0,35,36
 766 353 766 353 711 266 c 128,-1,37
 656 179 656 179 572 122.5 c 128,-1,38
 488 66 488 66 390.5 33 c 128,-1,39
 293 0 293 0 204 0 c 2,0,-1
209 55 m 1,40,-1
 263 55 l 2,41,42
 443 55 443 55 562 157.5 c 128,-1,43
 681 260 681 260 681 408 c 0,44,45
 681 453 681 453 666 489 c 128,-1,46
 651 525 651 525 629.5 547.5 c 128,-1,47
 608 570 608 570 574.5 586.5 c 128,-1,48
 541 603 541 603 514 610.5 c 128,-1,49
 487 618 487 618 450.5 622.5 c 128,-1,50
 414 627 414 627 397.5 627.5 c 128,-1,51
 381 628 381 628 358 628 c 1,52,53
 348 543 348 543 338.5 484.5 c 128,-1,54
 329 426 329 426 295.5 305 c 128,-1,55
 262 184 262 184 209 55 c 1,40,-1
EndSplineSet
Validated: 19457
EndChar

StartChar: E
Encoding: 69 69 4
Width: 527
VWidth: 1000
Flags: W
HStem: -22 55<171.034 308.258> 348 55<295.269 388.057> 650 55<333.671 465.546>
VStem: 28 85<82.7433 185.426> 145 85<459.69 553.992> 480 85<579.71 671>
LayerCount: 2
Fore
SplineSet
239 363 m 1,0,1
 145 396 145 396 145 475 c 0,2,3
 145 563 145 563 245 634 c 128,-1,4
 345 705 345 705 451 705 c 0,5,6
 565 705 565 705 565 637 c 0,7,8
 565 598 565 598 532.5 569.5 c 128,-1,9
 500 541 500 541 473 541 c 0,10,11
 463 541 463 541 463 548 c 0,12,13
 463 552 463 552 468 559 c 0,14,15
 480 577 480 577 480 595 c 128,-1,16
 480 613 480 613 468.5 625.5 c 128,-1,17
 457 638 457 638 439 642.5 c 128,-1,18
 421 647 421 647 408.5 648.5 c 128,-1,19
 396 650 396 650 385 650 c 0,20,21
 345 650 345 650 315 638 c 128,-1,22
 285 626 285 626 269.5 610 c 128,-1,23
 254 594 254 594 244.5 574 c 128,-1,24
 235 554 235 554 232.5 541 c 128,-1,25
 230 528 230 528 230 518 c 0,26,27
 230 501 230 501 237 484 c 128,-1,28
 244 467 244 467 261 448.5 c 128,-1,29
 278 430 278 430 313.5 417.5 c 128,-1,30
 349 405 349 405 399 403 c 0,31,32
 409 403 409 403 409 396 c 0,33,34
 409 385 409 385 383.5 367 c 128,-1,35
 358 349 358 349 327 348 c 0,36,37
 272 346 272 346 227.5 321 c 128,-1,38
 183 296 183 296 160 262 c 128,-1,39
 137 228 137 228 125 197 c 128,-1,40
 113 166 113 166 113 145 c 0,41,42
 113 92 113 92 158.5 62.5 c 128,-1,43
 204 33 204 33 263 33 c 0,44,45
 294 33 294 33 320 41.5 c 128,-1,46
 346 50 346 50 365.5 66.5 c 128,-1,47
 385 83 385 83 394 93.5 c 128,-1,48
 403 104 403 104 415 120 c 0,49,50
 430 141 430 141 453 152.5 c 128,-1,51
 476 164 476 164 488 164 c 0,52,53
 498 164 498 164 498 157 c 128,-1,54
 498 150 498 150 483 130.5 c 128,-1,55
 468 111 468 111 439.5 85 c 128,-1,56
 411 59 411 59 375.5 35 c 128,-1,57
 340 11 340 11 292 -5.5 c 128,-1,58
 244 -22 244 -22 197 -22 c 0,59,60
 124 -22 124 -22 76 12 c 128,-1,61
 28 46 28 46 28 102 c 0,62,63
 28 113 28 113 30.5 128 c 128,-1,64
 33 143 33 143 45 173 c 128,-1,65
 57 203 57 203 78 231.5 c 128,-1,66
 99 260 99 260 141 296.5 c 128,-1,67
 183 333 183 333 239 363 c 1,0,1
EndSplineSet
Validated: 19457
EndChar

StartChar: F
Encoding: 70 70 5
Width: 719
VWidth: 1000
Flags: W
HStem: -32 56<134.669 206.992> 294 65<589.002 652.929> 304 55<419 591> 594 90<744.094 777> 629 55<252.561 420 492.397 741.842>
VStem: 416 81<539.238 629> 742 88<601.5 645>
LayerCount: 2
Fore
SplineSet
830 645 m 0,0,1
 830 626 830 626 801 607 c 128,-1,2
 772 588 772 588 752 588 c 0,3,4
 747 588 747 588 744 591 c 0,5,6
 742 594 742 594 742.5 601.5 c 128,-1,7
 743 609 743 609 742 612 c 0,8,9
 737 618 737 618 726.5 622 c 128,-1,10
 716 626 716 626 700.5 627.5 c 128,-1,11
 685 629 685 629 675 629.5 c 128,-1,12
 665 630 665 630 647.5 629.5 c 128,-1,13
 630 629 630 629 629 629 c 2,14,-1
 497 629 l 1,15,16
 489 588 489 588 476 543 c 128,-1,17
 463 498 463 498 445.5 443.5 c 128,-1,18
 428 389 428 389 419 359 c 1,19,-1
 659 359 l 2,20,21
 678 359 678 359 678 353 c 0,22,23
 678 332 678 332 648.5 313 c 128,-1,24
 619 294 619 294 599 294 c 0,25,26
 589 294 589 294 589 301 c 0,27,28
 589 302 589 302 591 304 c 2,29,-1
 398 304 l 1,30,31
 394 295 394 295 378.5 258.5 c 128,-1,32
 363 222 363 222 351.5 195.5 c 128,-1,33
 340 169 340 169 324.5 135 c 128,-1,34
 309 101 309 101 295.5 77 c 128,-1,35
 282 53 282 53 273 42 c 0,36,37
 247 12 247 12 207 -10 c 128,-1,38
 167 -32 167 -32 131 -32 c 0,39,40
 93 -32 93 -32 62.5 -12.5 c 128,-1,41
 32 7 32 7 19 42 c 0,42,43
 17 46 17 46 17 48 c 0,44,45
 17 60 17 60 47 78.5 c 128,-1,46
 77 97 77 97 95 97 c 0,47,48
 100 97 100 97 105 87 c 0,49,50
 134 24 134 24 200 24 c 1,51,52
 208 31 208 31 274 174 c 0,53,54
 367 382 367 382 416 610 c 2,55,-1
 420 629 l 1,56,-1
 358 629 l 2,57,58
 342 629 342 629 312 628 c 128,-1,59
 282 627 282 627 266 627 c 1,60,61
 255 615 255 615 235.5 604.5 c 128,-1,62
 216 594 216 594 200 594 c 0,63,64
 192 594 192 594 190 601 c 0,65,66
 201 638 201 638 251 661 c 128,-1,67
 301 684 301 684 345 684 c 2,68,-1
 722 684 l 2,69,70
 724 684 724 684 737.5 684.5 c 128,-1,71
 751 685 751 685 757.5 684.5 c 128,-1,72
 764 684 764 684 777 683 c 128,-1,73
 790 682 790 682 797.5 679.5 c 128,-1,74
 805 677 805 677 813.5 673 c 128,-1,75
 822 669 822 669 826 661.5 c 128,-1,76
 830 654 830 654 830 645 c 0,0,1
EndSplineSet
Validated: 19457
EndChar

StartChar: G
Encoding: 71 71 6
Width: 594
VWidth: 1000
Flags: W
HStem: -119 55<169.09 311.284> 68 55<202.992 322.422> 650 55<341.319 502.279>
VStem: 44 85<206.156 406.925> 516 85<576.391 658.5>
LayerCount: 2
Fore
SplineSet
436 159 m 1,0,1
 323 68 323 68 218 68 c 0,2,3
 172 68 172 68 137 85.5 c 128,-1,4
 102 103 102 103 82.5 132.5 c 128,-1,5
 63 162 63 162 53.5 197 c 128,-1,6
 44 232 44 232 44 272 c 0,7,8
 44 387 44 387 104 487.5 c 128,-1,9
 164 588 164 588 263 646.5 c 128,-1,10
 362 705 362 705 473 705 c 0,11,12
 521 705 521 705 558 693 c 0,13,14
 601 679 601 679 601 638 c 0,15,16
 601 603 601 603 553 537 c 0,17,18
 506 473 506 473 464 473 c 0,19,20
 453 473 453 473 453 480 c 0,21,22
 453 485 453 485 460 492 c 2,23,-1
 467 502 l 2,24,25
 474 512 474 512 481.5 522.5 c 128,-1,26
 489 533 489 533 497.5 546.5 c 128,-1,27
 506 560 506 560 511 573 c 128,-1,28
 516 586 516 586 516 596 c 0,29,30
 516 629 516 629 480 639 c 0,31,32
 446 650 446 650 407 650 c 0,33,34
 355 650 355 650 313.5 634 c 128,-1,35
 272 618 272 618 254.5 602.5 c 128,-1,36
 237 587 237 587 218 565 c 0,37,38
 176 515 176 515 152.5 445.5 c 128,-1,39
 129 376 129 376 129 315 c 0,40,41
 129 229 129 229 170 176 c 128,-1,42
 211 123 211 123 283 123 c 0,43,44
 326 123 326 123 363 145.5 c 128,-1,45
 400 168 400 168 423 202 c 128,-1,46
 446 236 446 236 458 261 c 128,-1,47
 470 286 470 286 476 305 c 0,48,49
 480 320 480 320 482.5 325.5 c 128,-1,50
 485 331 485 331 490 336.5 c 128,-1,51
 495 342 495 342 507 350 c 0,52,53
 536 369 536 369 554 369 c 0,54,55
 565 369 565 369 565 360 c 0,56,57
 565 348 565 348 524 207 c 0,58,59
 510 151 510 151 478 82 c 0,60,61
 451 24 451 24 415.5 -17.5 c 128,-1,62
 380 -59 380 -59 343.5 -80 c 128,-1,63
 307 -101 307 -101 275 -110 c 128,-1,64
 243 -119 243 -119 213 -119 c 0,65,66
 171 -119 171 -119 131.5 -108 c 128,-1,67
 92 -97 92 -97 72 -85.5 c 128,-1,68
 52 -74 52 -74 52 -69 c 0,69,70
 52 -58 52 -58 77 -40 c 128,-1,71
 102 -22 102 -22 132 -21 c 1,72,73
 195 -64 195 -64 279 -64 c 0,74,75
 299 -64 299 -64 310.5 -61 c 128,-1,76
 322 -58 322 -58 338 -42.5 c 128,-1,77
 354 -27 354 -27 373 6 c 0,78,79
 407 60 407 60 436 159 c 1,0,1
EndSplineSet
Validated: 19457
EndChar

StartChar: H
Encoding: 72 72 7
Width: 844
VWidth: 1000
Flags: W
HStem: -49 55<579 708.658> 280 55<168.417 242 331 585.497> 628 55<199.019 352.5>
VStem: 301 85<465.09 655> 534 85<-6 165.604> 711 73<615.978 669.006>
LayerCount: 2
Fore
SplineSet
331 335 m 1,0,-1
 599 335 l 1,1,2
 655 527 655 527 700 636 c 0,3,4
 702 640 702 640 704.5 643.5 c 128,-1,5
 707 647 707 647 709 649 c 128,-1,6
 711 651 711 651 711 652 c 0,7,8
 746 683 746 683 774 683 c 0,9,10
 784 683 784 683 784 676 c 0,11,12
 784 672 784 672 781 665 c 0,13,14
 661 347 661 347 629 138 c 0,15,16
 619 65 619 65 619 49 c 0,17,18
 619 28 619 28 631.5 17 c 128,-1,19
 644 6 644 6 660 6 c 0,20,21
 674 6 674 6 691 9 c 0,22,23
 711 12 711 12 715 21 c 0,24,25
 725 46 725 46 751.5 60 c 128,-1,26
 778 74 778 74 791 74 c 0,27,28
 801 74 801 74 801 66 c 0,29,30
 801 34 801 34 742 -7.5 c 128,-1,31
 683 -49 683 -49 594 -49 c 0,32,33
 564 -49 564 -49 549 -33.5 c 128,-1,34
 534 -18 534 -18 534 6 c 0,35,36
 534 91 534 91 586 290 c 1,37,38
 570 280 570 280 540 280 c 2,39,-1
 315 280 l 1,40,41
 275 138 275 138 224 10 c 0,42,43
 220 1 220 1 213 -8 c 0,44,45
 199 -22 199 -22 179 -31.5 c 128,-1,46
 159 -41 159 -41 148 -41 c 0,47,48
 138 -41 138 -41 138 -34 c 0,49,50
 138 -31 138 -31 147 -8 c 0,51,52
 189 104 189 104 242 280 c 1,53,-1
 170 280 l 2,54,55
 154 280 154 280 150.5 281 c 128,-1,56
 147 282 147 282 147 287 c 0,57,58
 147 299 147 299 174 316.5 c 128,-1,59
 201 334 201 334 221 335 c 2,60,-1
 257 335 l 1,61,62
 277 418 277 418 286 467 c 0,63,64
 301 553 301 553 301 584 c 0,65,66
 301 601 301 601 290.5 614.5 c 128,-1,67
 280 628 280 628 253 628 c 0,68,69
 191 628 191 628 161 606 c 128,-1,70
 131 584 131 584 107 539 c 0,71,72
 93 515 93 515 68 502 c 128,-1,73
 43 489 43 489 31 489 c 0,74,75
 21 489 21 489 21 496 c 0,76,77
 21 501 21 501 30 518.5 c 128,-1,78
 39 536 39 536 65.5 567 c 128,-1,79
 92 598 92 598 128 623 c 0,80,81
 216 683 216 683 319 683 c 0,82,83
 386 683 386 683 386 627 c 0,84,85
 386 587 386 587 367 481 c 0,86,87
 354 417 354 417 331 335 c 1,0,-1
EndSplineSet
Validated: 19457
EndChar

StartChar: I
Encoding: 73 73 8
Width: 544
VWidth: 1000
Flags: W
HStem: 0 55<-1.98779 152.84 209 443.936> 628 55<183.164 387 444.612 614.68>
LayerCount: 2
Fore
SplineSet
355 683 m 2,0,-1
 612 683 l 2,1,2
 628 683 628 683 631.5 682 c 128,-1,3
 635 681 635 681 635 676 c 0,4,5
 635 661 635 661 603 643 c 0,6,7
 577 628 577 628 548 628 c 2,8,-1
 463 628 l 2,9,10
 448 628 448 628 444.5 626.5 c 128,-1,11
 441 625 441 625 436 618 c 0,12,13
 417 589 417 589 399 542 c 128,-1,14
 381 495 381 495 371.5 458.5 c 128,-1,15
 362 422 362 422 344 351 c 0,16,17
 314 232 314 232 286 164.5 c 128,-1,18
 258 97 258 97 209 55 c 1,19,-1
 400 55 l 2,20,21
 435 55 435 55 444.5 60 c 128,-1,22
 454 65 454 65 460 82 c 0,23,24
 467 99 467 99 493 114.5 c 128,-1,25
 519 130 519 130 534 130 c 0,26,27
 545 130 545 130 545 123 c 0,28,29
 545 90 545 90 482.5 45 c 128,-1,30
 420 0 420 0 341 0 c 2,31,-1
 -1 0 l 2,32,33
 -17 0 -17 0 -20.5 1 c 128,-1,34
 -24 2 -24 2 -24 7 c 0,35,36
 -24 14 -24 14 -12.5 24 c 128,-1,37
 -1 34 -1 34 9 40 c 0,38,39
 34 55 34 55 64 55 c 2,40,-1
 128 55 l 2,41,42
 148 55 148 55 153 57 c 128,-1,43
 158 59 158 59 166 67 c 0,44,45
 213 127 213 127 259 316 c 0,46,47
 292 446 292 446 318 516 c 128,-1,48
 344 586 344 586 387 628 c 1,49,-1
 296 628 l 2,50,51
 246 628 246 628 195 622 c 0,52,53
 147 616 147 616 135 606.5 c 128,-1,54
 123 597 123 597 113 566 c 0,55,56
 107 551 107 551 80.5 535 c 128,-1,57
 54 519 54 519 39 519 c 0,58,59
 28 519 28 519 28 527 c 0,60,61
 28 537 28 537 37 555.5 c 128,-1,62
 46 574 46 574 76.5 603 c 128,-1,63
 107 632 107 632 153 651 c 0,64,65
 238 683 238 683 355 683 c 2,0,-1
EndSplineSet
Validated: 19457
EndChar

StartChar: J
Encoding: 74 74 9
Width: 677
VWidth: 1000
Flags: W
HStem: -119 55<198.347 323.151> 628 55<496.799 689>
VStem: 47 85<-1.26233 98.4095>
LayerCount: 2
Fore
SplineSet
615 683 m 2,0,-1
 817 683 l 2,1,2
 833 683 833 683 836.5 682 c 128,-1,3
 840 681 840 681 840 676 c 0,4,5
 840 665 840 665 815.5 647.5 c 128,-1,6
 791 630 791 630 761 628 c 0,7,8
 744 627 744 627 737 623 c 128,-1,9
 730 619 730 619 718 605 c 0,10,11
 683 566 683 566 650.5 488.5 c 128,-1,12
 618 411 618 411 600.5 351 c 128,-1,13
 583 291 583 291 558 194 c 0,14,15
 546 146 546 146 537 119.5 c 128,-1,16
 528 93 528 93 500.5 50.5 c 128,-1,17
 473 8 473 8 430 -29 c 0,18,19
 325 -119 325 -119 215 -119 c 0,20,21
 141 -119 141 -119 94 -77 c 128,-1,22
 47 -35 47 -35 47 33 c 0,23,24
 47 82 47 82 70 99 c 0,25,26
 105 125 105 125 127 125 c 0,27,28
 137 125 137 125 137 116 c 2,29,-1
 134 102 l 2,30,31
 132 88 132 88 132 75 c 0,32,33
 132 12 132 12 176 -26 c 128,-1,34
 220 -64 220 -64 281 -64 c 0,35,36
 351 -64 351 -64 398.5 -7.5 c 128,-1,37
 446 49 446 49 467 129 c 0,38,39
 523 350 523 350 568 458.5 c 128,-1,40
 613 567 613 567 689 628 c 1,41,-1
 556 628 l 2,42,43
 399 628 399 628 353 479 c 0,44,45
 348 465 348 465 322 449 c 128,-1,46
 296 433 296 433 279 433 c 0,47,48
 269 433 269 433 269 440 c 128,-1,49
 269 447 269 447 275 466 c 128,-1,50
 281 485 281 485 311 527 c 128,-1,51
 341 569 341 569 390 604 c 0,52,53
 500 683 500 683 615 683 c 2,0,-1
EndSplineSet
Validated: 19457
EndChar

StartChar: K
Encoding: 75 75 10
Width: 761
VWidth: 1000
Flags: W
HStem: -22 43<490.547 602.067> 662 43<591.021 688.5>
VStem: 196 86<506.659 638> 241 60<326.438 457.315> 673 60<601.797 654.526>
LayerCount: 2
Fore
SplineSet
196 638 m 1,0,1
 148 614 148 614 137 614 c 128,-1,2
 126 614 126 614 126 620 c 128,-1,3
 126 626 126 626 132 633 c 128,-1,4
 138 640 138 640 152 648.5 c 128,-1,5
 166 657 166 657 177 663 c 128,-1,6
 188 669 188 669 210 680 c 0,7,8
 260 705 260 705 271 705 c 0,9,10
 279 705 279 705 280.5 702 c 128,-1,11
 282 699 282 699 282 689 c 0,12,13
 282 660 282 660 275 604 c 0,14,15
 262 491 262 491 221 344.5 c 128,-1,16
 180 198 180 198 148 111 c 128,-1,17
 116 24 116 24 110 16 c 0,18,19
 98 2 98 2 76 -10 c 128,-1,20
 54 -22 54 -22 40 -22 c 0,21,22
 30 -22 30 -22 30 -15 c 0,23,24
 30 -12 30 -12 35 0 c 0,25,26
 184 393 184 393 196 638 c 1,0,1
727 127 m 0,27,28
 727 104 727 104 697 67 c 0,29,30
 668 30 668 30 612.5 4 c 128,-1,31
 557 -22 557 -22 500 -22 c 0,32,33
 462 -22 462 -22 414 25 c 0,34,35
 360 80 360 80 300.5 208 c 128,-1,36
 241 336 241 336 241 400 c 0,37,38
 241 422 241 422 256 446.5 c 128,-1,39
 271 471 271 471 302 498 c 128,-1,40
 333 525 333 525 347 536 c 128,-1,41
 361 547 361 547 390 569 c 0,42,43
 461 620 461 620 545 662.5 c 128,-1,44
 629 705 629 705 675 705 c 0,45,46
 702 705 702 705 717.5 688 c 128,-1,47
 733 671 733 671 733 645 c 0,48,49
 733 623 733 623 720 610 c 128,-1,50
 707 597 707 597 697.5 595 c 128,-1,51
 688 593 688 593 683 593 c 0,52,53
 671 593 671 593 671 604 c 0,54,55
 671 606 671 606 672 611 c 128,-1,56
 673 616 673 616 673 620 c 0,57,58
 673 639 673 639 663 650.5 c 128,-1,59
 653 662 653 662 637 662 c 0,60,61
 601 662 601 662 497.5 601.5 c 128,-1,62
 394 541 394 541 339 487 c 0,63,64
 314 462 314 462 307.5 450 c 128,-1,65
 301 438 301 438 301 425 c 0,66,67
 301 378 301 378 339.5 282 c 128,-1,68
 378 186 378 186 436 103.5 c 128,-1,69
 494 21 494 21 539 21 c 0,70,71
 544 21 544 21 551 21.5 c 128,-1,72
 558 22 558 22 576.5 26 c 128,-1,73
 595 30 595 30 610.5 37 c 128,-1,74
 626 44 626 44 642 60 c 128,-1,75
 658 76 658 76 666 97 c 0,76,77
 672 115 672 115 685 124 c 0,78,79
 700 136 700 136 715 136 c 0,80,81
 727 136 727 136 727 127 c 0,27,28
EndSplineSet
Validated: 19457
EndChar

StartChar: L
Encoding: 76 76 11
Width: 689
VWidth: 1000
Flags: W
HStem: -22 62<395.174 525.049> 35 62<180.533 259.739> 643 62<434.341 555.5>
VStem: 522 97<549.058 625.493>
LayerCount: 2
Fore
SplineSet
180 93 m 1,0,1
 197 97 197 97 220 97 c 0,2,3
 269 97 269 97 353 73 c 0,4,5
 474 40 474 40 517 40 c 0,6,7
 528 40 528 40 531.5 41.5 c 128,-1,8
 535 43 535 43 541 52 c 0,9,10
 552 68 552 68 556 82 c 0,11,12
 561 96 561 96 566.5 103 c 128,-1,13
 572 110 572 110 591 122 c 0,14,15
 624 145 624 145 648 145 c 0,16,17
 655 145 655 145 655 138 c 0,18,19
 655 118 655 118 629 83 c 0,20,21
 601 45 601 45 545.5 11.5 c 128,-1,22
 490 -22 490 -22 434 -22 c 0,23,24
 387 -22 387 -22 281 7 c 0,25,26
 187 34 187 34 133 35 c 1,27,28
 108 9 108 9 91 -1 c 0,29,30
 59 -22 59 -22 40 -22 c 0,31,32
 31 -22 31 -22 31 -16 c 0,33,34
 31 -2 31 -2 68 32 c 0,35,36
 83 46 83 46 115 101 c 1,37,38
 145 161 145 161 171 261 c 0,39,40
 235 514 235 514 317 598 c 0,41,42
 423 705 423 705 535 705 c 0,43,44
 576 705 576 705 597.5 678.5 c 128,-1,45
 619 652 619 652 619 610 c 0,46,47
 619 581 619 581 613 569 c 128,-1,48
 607 557 607 557 592 545 c 0,49,50
 552 516 552 516 524 516 c 0,51,52
 517 516 517 516 517 523 c 0,53,54
 517 524 517 524 519.5 536.5 c 128,-1,55
 522 549 522 549 522 560 c 0,56,57
 522 570 522 570 520.5 580 c 128,-1,58
 519 590 519 590 513 606 c 128,-1,59
 507 622 507 622 491 632.5 c 128,-1,60
 475 643 475 643 451 643 c 0,61,62
 419 643 419 643 399 621 c 0,63,64
 326 540 326 540 264 294 c 0,65,66
 236 180 236 180 180 93 c 1,0,1
EndSplineSet
Validated: 19457
EndChar

StartChar: M
Encoding: 77 77 12
Width: 1200
VWidth: 1000
Flags: W
HStem: -50 92<79.3329 156.6> 685 20G<422.5 434 1097 1103>
VStem: 947 85<27.8226 330.388>
LayerCount: 2
Fore
SplineSet
385 559 m 1,0,1
 348 371 348 371 254 144 c 1,2,3
 178 -50 178 -50 113 -50 c 0,4,5
 86 -50 86 -50 59 -36 c 0,6,7
 27 -19 27 -19 27 2 c 128,-1,8
 27 23 27 23 40 49 c 128,-1,9
 53 75 53 75 63 75 c 0,10,11
 67 75 67 75 72 70 c 0,12,13
 87 57 87 57 109 49.5 c 128,-1,14
 131 42 131 42 144 42 c 0,15,16
 152 42 152 42 156.5 43.5 c 128,-1,17
 161 45 161 45 171.5 56 c 128,-1,18
 182 67 182 67 193.5 88 c 128,-1,19
 205 109 205 109 223.5 151.5 c 128,-1,20
 242 194 242 194 265 255 c 0,21,22
 337 451 337 451 367 662 c 0,23,24
 369 677 369 677 392 691 c 128,-1,25
 415 705 415 705 430 705 c 0,26,27
 438 705 438 705 441 700 c 0,28,29
 441 694 441 694 449 657 c 0,30,31
 475 507 475 507 512 364 c 0,32,33
 547 224 547 224 590 133 c 1,34,35
 700 227 700 227 1075 681 c 0,36,37
 1095 704 1095 704 1099 704 c 0,38,39
 1107 704 1107 704 1107 689 c 0,40,41
 1107 686 1107 686 1105 672 c 0,42,43
 1082 574 1082 574 1057 394 c 128,-1,44
 1032 214 1032 214 1032 134 c 0,45,46
 1032 100 1032 100 1035 68 c 0,47,48
 1036 54 1036 54 1037.5 47 c 128,-1,49
 1039 40 1039 40 1045.5 33.5 c 128,-1,50
 1052 27 1052 27 1063 26 c 1,51,52
 1088 42 1088 42 1107 42 c 0,53,54
 1116 42 1116 42 1116 35 c 0,55,56
 1116 20 1116 20 1072.5 -4.5 c 128,-1,57
 1029 -29 1029 -29 998 -29 c 0,58,59
 955 -29 955 -29 951 11 c 0,60,61
 947 47 947 47 947 91 c 0,62,63
 947 214 947 214 997 518 c 1,64,-1
 778 263 l 2,65,66
 664 133 664 133 580 52 c 0,67,68
 562 34 562 34 556 34 c 0,69,70
 546 34 546 34 513 99 c 0,71,72
 457 213 457 213 385 559 c 1,0,1
EndSplineSet
Validated: 19457
EndChar

StartChar: N
Encoding: 78 78 13
Width: 820
VWidth: 1000
Flags: W
HStem: -50 92<24.1917 105.455> -25 21G<563.5 576.5> 683 92<846.984 962.352> 685 20G<332 346.5>
LayerCount: 2
Fore
SplineSet
306 574 m 1,0,1
 265 343 265 343 191 137 c 0,2,3
 126 -50 126 -50 60 -50 c 0,4,5
 34 -50 34 -50 2.5 -35 c 128,-1,6
 -29 -20 -29 -20 -29 1 c 0,7,8
 -29 20 -29 20 -16 47.5 c 128,-1,9
 -3 75 -3 75 8 75 c 0,10,11
 11 75 11 75 16 71 c 0,12,13
 47 42 47 42 91 42 c 0,14,15
 113 42 113 42 131 75 c 0,16,17
 160 127 160 127 211 302 c 128,-1,18
 262 477 262 477 280 652 c 0,19,20
 282 672 282 672 292 681 c 0,21,22
 321 705 321 705 343 705 c 0,23,24
 350 705 350 705 352.5 702 c 128,-1,25
 355 699 355 699 359 684 c 0,26,27
 414 501 414 501 471 348 c 0,28,29
 512 237 512 237 539.5 175.5 c 128,-1,30
 567 114 567 114 605 57 c 1,31,32
 662 293 662 293 703 444 c 0,33,34
 739 574 739 574 760 634 c 128,-1,35
 781 694 781 694 801 720 c 0,36,37
 852 775 852 775 958 775 c 0,38,39
 966 775 966 775 969.5 774.5 c 128,-1,40
 973 774 973 774 975.5 770.5 c 128,-1,41
 978 767 978 767 978 759 c 0,42,43
 978 740 978 740 965.5 712 c 128,-1,44
 953 684 953 684 939 683 c 0,45,46
 884 682 884 682 848 671 c 128,-1,47
 812 660 812 660 805 653 c 128,-1,48
 798 646 798 646 795 641 c 0,49,50
 779 604 779 604 730.5 424.5 c 128,-1,51
 682 245 682 245 639 58 c 0,52,53
 631 22 631 22 627.5 13.5 c 128,-1,54
 624 5 624 5 613 -5 c 0,55,56
 586 -25 586 -25 567 -25 c 0,57,58
 560 -25 560 -25 557 -22 c 128,-1,59
 554 -19 554 -19 543 -3 c 0,60,61
 498 67 498 67 468.5 131 c 128,-1,62
 439 195 439 195 391 324 c 0,63,64
 371 378 371 378 354.5 427.5 c 128,-1,65
 338 477 338 477 325 517 c 128,-1,66
 312 557 312 557 306 574 c 1,0,1
EndSplineSet
Validated: 19457
EndChar

StartChar: O
Encoding: 79 79 14
Width: 796
VWidth: 1000
Flags: W
HStem: -22 55<262.607 417.525> 650 55<502.741 612.509>
VStem: 57 85<167.144 382.819> 692 85<337.954 557.666>
LayerCount: 2
Fore
SplineSet
777 482 m 0,0,1
 777 372 777 372 729.5 274.5 c 128,-1,2
 682 177 682 177 609.5 114 c 128,-1,3
 537 51 537 51 454 14.5 c 128,-1,4
 371 -22 371 -22 296 -22 c 0,5,6
 217 -22 217 -22 161.5 16.5 c 128,-1,7
 106 55 106 55 81.5 114 c 128,-1,8
 57 173 57 173 57 246 c 0,9,10
 57 330 57 330 88 408 c 128,-1,11
 119 486 119 486 163.5 538 c 128,-1,12
 208 590 208 590 256.5 629.5 c 128,-1,13
 305 669 305 669 340 687 c 128,-1,14
 375 705 375 705 388 705 c 0,15,16
 398 705 398 705 398 698 c 0,17,18
 398 685 398 685 358 661 c 0,19,20
 253 599 253 599 197.5 498 c 128,-1,21
 142 397 142 397 142 289 c 0,22,23
 142 178 142 178 200.5 105.5 c 128,-1,24
 259 33 259 33 362 33 c 0,25,26
 452 33 452 33 529 92 c 128,-1,27
 606 151 606 151 649 244 c 128,-1,28
 692 337 692 337 692 439 c 0,29,30
 692 537 692 537 649 593.5 c 128,-1,31
 606 650 606 650 533 650 c 0,32,33
 486 650 486 650 449 608 c 0,34,35
 410 564 410 564 380 497 c 0,36,37
 371 479 371 479 367 473 c 128,-1,38
 363 467 363 467 350 458 c 0,39,40
 321 437 321 437 300 437 c 0,41,42
 290 437 290 437 290 444 c 0,43,44
 290 448 290 448 299.5 471 c 128,-1,45
 309 494 309 494 336.5 537 c 128,-1,46
 364 580 364 580 400 615 c 0,47,48
 505 705 505 705 599 705 c 0,49,50
 687 705 687 705 732 643.5 c 128,-1,51
 777 582 777 582 777 482 c 0,0,1
EndSplineSet
Validated: 19457
EndChar

StartChar: P
Encoding: 80 80 15
Width: 695
VWidth: 1000
Flags: W
HStem: 205 55<317.354 445.935> 628 55<209.292 276 354.721 543.594>
VStem: 276 81<480.157 628> 648 85<433.569 550.201>
LayerCount: 2
Fore
SplineSet
348 683 m 2,0,-1
 482 683 l 2,1,2
 544 683 544 683 599 668 c 128,-1,3
 654 653 654 653 693.5 615.5 c 128,-1,4
 733 578 733 578 733 524 c 0,5,6
 733 445 733 445 666.5 369.5 c 128,-1,7
 600 294 600 294 503 249.5 c 128,-1,8
 406 205 406 205 315 205 c 0,9,10
 296 205 296 205 296 212 c 0,11,12
 296 224 296 224 322 241 c 0,13,14
 349 258 349 258 382 260 c 0,15,16
 451 262 451 262 505 286 c 128,-1,17
 559 310 559 310 588.5 345 c 128,-1,18
 618 380 618 380 633 415 c 128,-1,19
 648 450 648 450 648 481 c 0,20,21
 648 552 648 552 578 590 c 128,-1,22
 508 628 508 628 409 628 c 2,23,-1
 357 628 l 1,24,25
 322 300 322 300 193 -2 c 0,26,27
 185 -20 185 -20 158.5 -35 c 128,-1,28
 132 -50 132 -50 118 -50 c 0,29,30
 108 -50 108 -50 108 -43 c 0,31,32
 108 -40 108 -40 114 -25 c 0,33,34
 251 316 251 316 276 628 c 1,35,36
 190 624 190 624 155.5 603.5 c 128,-1,37
 121 583 121 583 108 547 c 0,38,39
 103 532 103 532 98 525 c 128,-1,40
 93 518 93 518 78 508 c 0,41,42
 48 489 48 489 31 489 c 0,43,44
 21 489 21 489 21 497 c 0,45,46
 21 525 21 525 59 568 c 128,-1,47
 97 611 97 611 174.5 647 c 128,-1,48
 252 683 252 683 348 683 c 2,0,-1
EndSplineSet
Validated: 19457
EndChar

StartChar: Q
Encoding: 81 81 16
Width: 816
VWidth: 1000
Flags: W
HStem: -124 55<513.388 670.628> -27 55<157.125 276.783> 102 55<272.4 399.652> 650 55<430.69 582.758>
VStem: 113 85<234.732 401.829> 690 85<328.285 531.885>
LayerCount: 2
Fore
SplineSet
223 28 m 2,0,-1
 252 28 l 2,1,2
 368 28 368 28 434.5 50.5 c 128,-1,3
 501 73 501 73 554 121 c 0,4,5
 622 181 622 181 656 259.5 c 128,-1,6
 690 338 690 338 690 417 c 0,7,8
 690 519 690 519 635.5 584.5 c 128,-1,9
 581 650 581 650 488 650 c 0,10,11
 437 650 437 650 390 629 c 128,-1,12
 343 608 343 608 309 573.5 c 128,-1,13
 275 539 275 539 249.5 496.5 c 128,-1,14
 224 454 224 454 211 411 c 128,-1,15
 198 368 198 368 198 330 c 0,16,17
 198 253 198 253 241.5 205 c 128,-1,18
 285 157 285 157 353 157 c 0,19,20
 403 157 403 157 446 181 c 0,21,22
 480 198 480 198 491 198 c 128,-1,23
 502 198 502 198 502 192 c 0,24,25
 502 171 502 171 429 136.5 c 128,-1,26
 356 102 356 102 287 102 c 0,27,28
 206 102 206 102 159.5 154 c 128,-1,29
 113 206 113 206 113 288 c 0,30,31
 113 389 113 389 180.5 487 c 128,-1,32
 248 585 248 585 351 645 c 128,-1,33
 454 705 454 705 554 705 c 0,34,35
 660 705 660 705 717.5 635.5 c 128,-1,36
 775 566 775 566 775 459 c 0,37,38
 775 373 775 373 738.5 293 c 128,-1,39
 702 213 702 213 644 155 c 128,-1,40
 586 97 586 97 518.5 56 c 128,-1,41
 451 15 451 15 384 -4 c 1,42,43
 472 -34 472 -34 504 -44 c 128,-1,44
 536 -54 536 -54 571.5 -61.5 c 128,-1,45
 607 -69 607 -69 639 -69 c 0,46,47
 655 -69 655 -69 664.5 -67 c 128,-1,48
 674 -65 674 -65 684 -55 c 128,-1,49
 694 -45 694 -45 701 -26 c 0,50,51
 709 -5 709 -5 731 9 c 0,52,53
 759 28 759 28 778 28 c 0,54,55
 787 28 787 28 787 20 c 0,56,57
 787 -17 787 -17 720 -70.5 c 128,-1,58
 653 -124 653 -124 573 -124 c 0,59,60
 492 -124 492 -124 354 -74 c 0,61,62
 279 -48 279 -48 238 -38.5 c 128,-1,63
 197 -29 197 -29 146 -27 c 0,64,65
 136 -27 136 -27 136 -20 c 0,66,67
 136 -7 136 -7 168 13 c 0,68,69
 193 28 193 28 223 28 c 2,0,-1
EndSplineSet
Validated: 19457
EndChar

StartChar: R
Encoding: 82 82 17
Width: 847
VWidth: 1000
Flags: W
HStem: -22 55<580 694.69> 274 54<371.532 401.291> 628 55<356.775 576.841>
VStem: 276 82<471.115 628> 647 85<470.02 574.375>
LayerCount: 2
Fore
SplineSet
405 628 m 2,0,-1
 358 628 l 1,1,2
 348 522 348 522 323.5 411.5 c 128,-1,3
 299 301 299 301 270 215.5 c 128,-1,4
 241 130 241 130 225.5 89 c 128,-1,5
 210 48 210 48 199 23 c 2,6,-1
 198 21 l 2,7,8
 190 7 190 7 165 -7.5 c 128,-1,9
 140 -22 140 -22 125 -22 c 0,10,11
 115 -22 115 -22 115 -15 c 0,12,13
 115 -12 115 -12 120 -1 c 0,14,15
 189 168 189 168 228 328 c 0,16,17
 264 483 264 483 276 628 c 1,18,19
 190 624 190 624 155.5 603.5 c 128,-1,20
 121 583 121 583 108 547 c 0,21,22
 103 532 103 532 98 525 c 128,-1,23
 93 518 93 518 78 508 c 0,24,25
 48 489 48 489 31 489 c 0,26,27
 21 489 21 489 21 497 c 0,28,29
 21 501 21 501 23.5 510 c 128,-1,30
 26 519 26 519 36 536 c 128,-1,31
 46 553 46 553 61.5 571 c 128,-1,32
 77 589 77 589 106 609.5 c 128,-1,33
 135 630 135 630 173 647 c 0,34,35
 230 672 230 672 277 677.5 c 128,-1,36
 324 683 324 683 413 683 c 0,37,38
 451 683 451 683 470.5 682.5 c 128,-1,39
 490 682 490 682 525.5 681 c 128,-1,40
 561 680 561 680 581 676.5 c 128,-1,41
 601 673 601 673 628.5 667.5 c 128,-1,42
 656 662 656 662 671.5 652.5 c 128,-1,43
 687 643 687 643 702.5 630.5 c 128,-1,44
 718 618 718 618 725 599.5 c 128,-1,45
 732 581 732 581 732 558 c 0,46,47
 732 480 732 480 665 408 c 128,-1,48
 598 336 598 336 489 296 c 1,49,50
 517 263 517 263 551 182 c 0,51,52
 573 131 573 131 585.5 106 c 128,-1,53
 598 81 598 81 620.5 57 c 128,-1,54
 643 33 643 33 667 33 c 0,55,56
 690 33 690 33 708.5 43 c 128,-1,57
 727 53 727 53 735 62 c 128,-1,58
 743 71 743 71 754 87 c 0,59,60
 768 106 768 106 791 118 c 128,-1,61
 814 130 814 130 826 130 c 0,62,63
 837 130 837 130 837 123 c 0,64,65
 837 114 837 114 816.5 91 c 128,-1,66
 796 68 796 68 765 42.5 c 128,-1,67
 734 17 734 17 688.5 -2.5 c 128,-1,68
 643 -22 643 -22 601 -22 c 128,-1,69
 559 -22 559 -22 533.5 10.5 c 128,-1,70
 508 43 508 43 470 129 c 128,-1,71
 432 215 432 215 410.5 242 c 128,-1,72
 389 269 389 269 356 274 c 0,73,74
 351 274 351 274 351 280 c 0,75,76
 351 291 351 291 376 309 c 128,-1,77
 401 327 401 327 434 328 c 0,78,79
 492 330 492 330 536 350.5 c 128,-1,80
 580 371 580 371 603 401.5 c 128,-1,81
 626 432 626 432 636.5 460.5 c 128,-1,82
 647 489 647 489 647 515 c 0,83,84
 647 569 647 569 593.5 598.5 c 128,-1,85
 540 628 540 628 405 628 c 2,0,-1
EndSplineSet
Validated: 19457
EndChar

StartChar: S
Encoding: 83 83 18
Width: 605
VWidth: 1000
Flags: W
HStem: -22 55<188.486 352.448> 650 55<365.928 516.939>
VStem: 18 85<104.832 199.559> 191 85<471.122 565.479> 488 85<146.286 252.632> 557 85<547.2 617.367>
LayerCount: 2
Fore
SplineSet
115 219 m 1,0,1
 103 192 103 192 103 167 c 0,2,3
 103 115 103 115 157.5 74 c 128,-1,4
 212 33 212 33 287 33 c 0,5,6
 391 33 391 33 439.5 78.5 c 128,-1,7
 488 124 488 124 488 184 c 0,8,9
 488 214 488 214 474 239.5 c 128,-1,10
 460 265 460 265 432.5 285.5 c 128,-1,11
 405 306 405 306 382.5 318.5 c 128,-1,12
 360 331 360 331 326 346 c 0,13,14
 301 357 301 357 283.5 366.5 c 128,-1,15
 266 376 266 376 241.5 394 c 128,-1,16
 217 412 217 412 204 436.5 c 128,-1,17
 191 461 191 461 191 491 c 0,18,19
 191 546 191 546 236.5 596.5 c 128,-1,20
 282 647 282 647 349.5 676 c 128,-1,21
 417 705 417 705 482 705 c 0,22,23
 542 705 542 705 589 683 c 0,24,25
 615 672 615 672 628.5 656.5 c 128,-1,26
 642 641 642 641 642 608 c 0,27,28
 642 564 642 564 618 546 c 0,29,30
 586 519 586 519 561 519 c 0,31,32
 551 519 551 519 551 526 c 0,33,34
 551 530 551 530 553 536 c 0,35,36
 557 551 557 551 557 566 c 0,37,38
 557 586 557 586 548.5 600 c 128,-1,39
 540 614 540 614 533 619 c 128,-1,40
 526 624 526 624 512 630 c 0,41,42
 467 650 467 650 416 650 c 0,43,44
 349 650 349 650 316 621 c 0,45,46
 276 586 276 586 276 534 c 0,47,48
 276 457 276 457 392 404 c 0,49,50
 432 386 432 386 456 373.5 c 128,-1,51
 480 361 480 361 511.5 338.5 c 128,-1,52
 543 316 543 316 558 288.5 c 128,-1,53
 573 261 573 261 573 227 c 0,54,55
 573 162 573 162 519 103.5 c 128,-1,56
 465 45 465 45 383.5 11.5 c 128,-1,57
 302 -22 302 -22 221 -22 c 0,58,59
 133 -22 133 -22 75.5 22.5 c 128,-1,60
 18 67 18 67 18 124 c 0,61,62
 18 159 18 159 33.5 188 c 128,-1,63
 49 217 49 217 71.5 233.5 c 128,-1,64
 94 250 94 250 115 258.5 c 128,-1,65
 136 267 136 267 150 267 c 0,66,67
 162 267 162 267 162 260 c 0,68,69
 162 251 162 251 144.5 237.5 c 128,-1,70
 127 224 127 224 115 219 c 1,0,1
EndSplineSet
Validated: 19457
EndChar

StartChar: T
Encoding: 84 84 19
Width: 544
VWidth: 1000
Flags: W
HStem: 621 62<190.7 415 486 762.966>
LayerCount: 2
Fore
SplineSet
486 621 m 1,0,-1
 374 175 l 2,1,2
 364 137 364 137 347.5 90.5 c 128,-1,3
 331 44 331 44 319 15 c 128,-1,4
 307 -14 307 -14 303 -20 c 0,5,6
 292 -35 292 -35 263 -51.5 c 128,-1,7
 234 -68 234 -68 219 -68 c 0,8,9
 210 -68 210 -68 210 -61 c 0,10,11
 210 -57 210 -57 216 -45 c 0,12,13
 257 48 257 48 278 132 c 2,14,-1
 392 585 l 2,15,16
 397 609 397 609 415 621 c 1,17,-1
 216 621 l 2,18,19
 186 621 186 621 174.5 616.5 c 128,-1,20
 163 612 163 612 154 601 c 0,21,22
 133 574 133 574 131 539 c 0,23,24
 130 522 130 522 96 502 c 128,-1,25
 62 482 62 482 42 482 c 0,26,27
 34 482 34 482 34 494 c 0,28,29
 34 557 34 557 120 620 c 128,-1,30
 206 683 206 683 297 683 c 2,31,-1
 734 683 l 2,32,33
 755 683 755 683 763 689 c 0,34,35
 802 717 802 717 825 717 c 0,36,37
 834 717 834 717 834 710 c 0,38,39
 834 705 834 705 828 695.5 c 128,-1,40
 822 686 822 686 807.5 673 c 128,-1,41
 793 660 793 660 773 648.5 c 128,-1,42
 753 637 753 637 721 629 c 128,-1,43
 689 621 689 621 652 621 c 2,44,-1
 486 621 l 1,0,-1
EndSplineSet
Validated: 19457
EndChar

StartChar: U
Encoding: 85 85 20
Width: 625
VWidth: 1000
Flags: W
HStem: -22 55<62.2422 173.96> 628 55<90.2091 208>
VStem: -17 85<61.6821 210.717> 148 85<545.662 659> 435 85<-6.95752 151.767>
LayerCount: 2
Fore
SplineSet
493 296 m 1,0,-1
 492 297 l 1,1,2
 406 181 406 181 335 114 c 0,3,4
 189 -22 189 -22 80 -22 c 0,5,6
 30 -22 30 -22 6.5 11 c 128,-1,7
 -17 44 -17 44 -17 98 c 0,8,9
 -17 141 -17 141 1.5 199 c 128,-1,10
 20 257 20 257 70 370 c 0,11,12
 148 548 148 548 148 592 c 0,13,14
 148 628 148 628 117 628 c 0,15,16
 88 628 88 628 67 613 c 0,17,18
 39 594 39 594 21 594 c 0,19,20
 10 594 10 594 10 600 c 0,21,22
 10 618 10 618 70 650.5 c 128,-1,23
 130 683 130 683 183 683 c 0,24,25
 233 683 233 683 233 635 c 128,-1,26
 233 587 233 587 167 437 c 0,27,28
 130 352 130 352 113 311 c 128,-1,29
 96 270 96 270 82 221.5 c 128,-1,30
 68 173 68 173 68 140 c 0,31,32
 68 91 68 91 89 62 c 128,-1,33
 110 33 110 33 146 33 c 0,34,35
 213 33 213 33 340 178 c 0,36,37
 344 182 344 182 346 184 c 0,38,39
 419 269 419 269 485.5 378 c 128,-1,40
 552 487 552 487 577 560 c 0,41,42
 588 594 588 594 604 637 c 0,43,44
 610 651 610 651 636 667 c 128,-1,45
 662 683 662 683 678 683 c 0,46,47
 688 683 688 683 688 676 c 0,48,49
 688 657 688 657 663 599 c 0,50,51
 629 511 629 511 574.5 322 c 128,-1,52
 520 133 520 133 520 53 c 0,53,54
 520 30 520 30 540 27 c 1,55,56
 568 42 568 42 581 42 c 0,57,58
 591 42 591 42 591 35 c 0,59,60
 591 20 591 20 548 -4 c 128,-1,61
 505 -28 505 -28 476 -28 c 0,62,63
 435 -28 435 -28 435 11 c 0,64,65
 435 84 435 84 493 296 c 1,0,-1
EndSplineSet
Validated: 19457
EndChar

StartChar: V
Encoding: 86 86 21
Width: 612
VWidth: 1000
Flags: WO
HStem: 592.5 89.5<534.685 588.69> 633 49<45.3652 114.564>
VStem: 211 74<89.8394 487.766> 616 44<462.454 596>
LayerCount: 2
Fore
SplineSet
270 86 m 1,0,1
 401 188 401 188 508.5 317 c 128,-1,2
 616 446 616 446 616 506 c 0,3,4
 616 533 616 533 598.5 559.5 c 128,-1,5
 581 586 581 586 537 591 c 0,6,7
 530 592 530 592 527 592.5 c 128,-1,8
 524 593 524 593 522 596.5 c 128,-1,9
 520 600 520 600 520 607 c 0,10,11
 520 624 520 624 532 654 c 0,12,13
 544 682 544 682 561 682 c 0,14,15
 562 682 l 0,16,-1
 563 682 l 0,17,18
 600 682 600 682 630 653.5 c 128,-1,19
 660 625 660 625 660 567 c 0,20,21
 660 469 660 469 571 333 c 0,22,23
 514 246 514 246 421 152.5 c 128,-1,24
 328 59 328 59 263.5 7 c 128,-1,25
 199 -45 199 -45 191 -45 c 0,26,27
 184 -45 184 -45 184 -28 c 0,28,29
 184 -22 184 -22 186 -10 c 0,30,31
 211 130 211 130 211 278 c 0,32,33
 211 619 211 619 53 633 c 0,34,35
 34 634 34 634 34 641 c 0,36,37
 34 653 34 653 56 668 c 0,38,39
 77 682 77 682 100 682 c 0,40,41
 101 682 101 682 103 682 c 0,42,43
 140 682 140 682 170 665 c 128,-1,44
 200 648 200 648 218.5 623 c 128,-1,45
 237 598 237 598 250.5 559.5 c 128,-1,46
 264 521 264 521 270.5 490 c 128,-1,47
 277 459 277 459 280.5 417.5 c 128,-1,48
 284 376 284 376 284.5 357.5 c 128,-1,49
 285 339 285 339 285 314 c 0,50,51
 285 209 285 209 270 86 c 1,0,1
EndSplineSet
Validated: 3073
EndChar

StartChar: W
Encoding: 87 87 22
Width: 987
VWidth: 1000
Flags: W
HStem: 633 50<46.8145 110.604>
VStem: 189 74<119.361 521.216> 668 71<94.0059 255.558> 992 44<465.096 604>
LayerCount: 2
Fore
SplineSet
241 129 m 1,0,-1
 242 129 l 1,1,2
 409 339 409 339 559 622 c 1,3,4
 553 637 553 637 553 640 c 0,5,6
 553 653 553 653 576.5 668 c 128,-1,7
 600 683 600 683 615 683 c 0,8,9
 624 683 624 683 629 672 c 0,10,11
 665 575 665 575 698 420.5 c 128,-1,12
 731 266 731 266 739 118 c 0,13,14
 740 94 740 94 741 94 c 0,15,16
 746 94 746 94 807 174.5 c 128,-1,17
 868 255 868 255 930 360 c 128,-1,18
 992 465 992 465 992 516 c 0,19,20
 992 582 992 582 932 591 c 0,21,22
 928 592 928 592 926 592.5 c 128,-1,23
 924 593 924 593 922 596.5 c 128,-1,24
 920 600 920 600 920 607 c 0,25,26
 920 624 920 624 932 653.5 c 128,-1,27
 944 683 944 683 962 683 c 0,28,29
 990 683 990 683 1013 657 c 128,-1,30
 1036 631 1036 631 1036 577 c 0,31,32
 1036 516 1036 516 1001.5 431 c 128,-1,33
 967 346 967 346 912.5 261 c 128,-1,34
 858 176 858 176 804 104 c 128,-1,35
 750 32 750 32 698 -26 c 0,36,37
 681 -45 681 -45 676 -45 c 0,38,39
 670 -45 670 -45 670 -37 c 0,40,41
 668 -31 668 -31 668 16 c 0,42,43
 667 89 667 89 656 183 c 0,44,45
 631 397 631 397 573 577 c 1,46,47
 572 576 572 576 563 558 c 128,-1,48
 554 540 554 540 537.5 509.5 c 128,-1,49
 521 479 521 479 504 449 c 0,50,51
 359 196 359 196 173 -25 c 0,52,53
 156 -45 156 -45 151 -45 c 0,54,55
 144 -45 144 -45 144 -29 c 0,56,57
 144 -20 144 -20 148 -3 c 0,58,59
 158 35 158 35 173.5 141.5 c 128,-1,60
 189 248 189 248 189 345 c 0,61,62
 189 455 189 455 165 527 c 0,63,64
 132 626 132 626 52 633 c 0,65,66
 34 634 34 634 34 641 c 0,67,68
 34 653 34 653 56.5 668 c 128,-1,69
 79 683 79 683 103 683 c 0,70,71
 185 683 185 683 229 593 c 0,72,73
 263 521 263 521 263 380 c 0,74,75
 263 268 263 268 241 129 c 1,0,-1
EndSplineSet
Validated: 19457
EndChar

StartChar: X
Encoding: 88 88 23
Width: 713
VWidth: 1000
Flags: W
HStem: 0 55<507.5 601.873> 628 55<317 368.968 705.813 719.875>
VStem: 50 85<56 113.944> 723 85<568.875 640>
LayerCount: 2
Fore
SplineSet
479 551 m 2,0,-1
 494 398 l 1,1,2
 598 461 598 461 635 486 c 0,3,4
 694 526 694 526 708.5 544 c 128,-1,5
 723 562 723 562 723 584 c 0,6,7
 723 624 723 624 691 628 c 0,8,9
 684 628 684 628 684 635 c 0,10,11
 684 646 684 646 711.5 664.5 c 128,-1,12
 739 683 739 683 761 683 c 128,-1,13
 783 683 783 683 795.5 668 c 128,-1,14
 808 653 808 653 808 627 c 0,15,16
 808 606 808 606 802.5 593 c 128,-1,17
 797 580 797 580 770 551 c 128,-1,18
 743 522 743 522 676 476.5 c 128,-1,19
 609 431 609 431 497 364 c 1,20,21
 503 305 503 305 507.5 259 c 128,-1,22
 512 213 512 213 513 202 c 0,23,24
 516 169 516 169 518 153.5 c 128,-1,25
 520 138 520 138 525 115 c 128,-1,26
 530 92 530 92 536.5 81.5 c 128,-1,27
 543 71 543 71 555 63 c 128,-1,28
 567 55 567 55 584 55 c 0,29,30
 591 55 591 55 594 56 c 0,31,32
 606 78 606 78 630.5 90.5 c 128,-1,33
 655 103 655 103 667 103 c 0,34,35
 678 103 678 103 678 96 c 0,36,37
 678 70 678 70 630 35 c 128,-1,38
 582 0 582 0 518 0 c 0,39,40
 497 0 497 0 481.5 8.5 c 128,-1,41
 466 17 466 17 457 27.5 c 128,-1,42
 448 38 448 38 442 60.5 c 128,-1,43
 436 83 436 83 434 98.5 c 128,-1,44
 432 114 432 114 429 145 c 0,45,46
 412 290 412 290 412 314 c 1,47,48
 392 301 392 301 333.5 266 c 128,-1,49
 275 231 275 231 241 209 c 0,50,51
 190 175 190 175 166.5 154.5 c 128,-1,52
 143 134 143 134 139 124.5 c 128,-1,53
 135 115 135 115 135 99 c 0,54,55
 135 59 135 59 167 55 c 0,56,57
 174 53 174 53 174 48 c 0,58,59
 174 36 174 36 147 18 c 128,-1,60
 120 0 120 0 98 0 c 128,-1,61
 76 0 76 0 63 15 c 128,-1,62
 50 30 50 30 50 56 c 0,63,64
 50 75 50 75 54.5 88 c 128,-1,65
 59 101 59 101 86 129.5 c 128,-1,66
 113 158 113 158 166 196 c 0,67,68
 281 276 281 276 409 347 c 1,69,-1
 395 494 l 2,70,71
 387 574 387 574 372 601 c 128,-1,72
 357 628 357 628 317 628 c 1,73,-1
 315 627 l 1,74,75
 303 605 303 605 279 592.5 c 128,-1,76
 255 580 255 580 242 580 c 0,77,78
 231 580 231 580 231 587 c 0,79,80
 231 613 231 613 279 648 c 128,-1,81
 327 683 327 683 391 683 c 0,82,83
 411 683 411 683 426 676 c 128,-1,84
 441 669 441 669 450 658.5 c 128,-1,85
 459 648 459 648 465 629 c 128,-1,86
 471 610 471 610 473.5 594 c 128,-1,87
 476 578 476 578 479 551 c 2,0,-1
EndSplineSet
Validated: 19457
EndChar

StartChar: Y
Encoding: 89 89 24
Width: 668
VWidth: 1000
Flags: W
HStem: -135 77<107.896 221.227> 599 84<593.618 658.786> 633 50<121.892 213.161>
VStem: 338 74<98.5981 423.712> 677 40<469.595 575.919>
LayerCount: 2
Fore
SplineSet
408 97 m 1,0,1
 485 172 485 172 542.5 248.5 c 128,-1,2
 600 325 600 325 626.5 380.5 c 128,-1,3
 653 436 653 436 665 471 c 128,-1,4
 677 506 677 506 677 522 c 0,5,6
 677 550 677 550 660 575 c 128,-1,7
 643 600 643 600 603 605 c 0,8,9
 591 607 591 607 587.5 609.5 c 128,-1,10
 584 612 584 612 584 623 c 0,11,12
 584 638 584 638 593.5 660.5 c 128,-1,13
 603 683 603 683 622 683 c 0,14,15
 657 683 657 683 687 654 c 128,-1,16
 717 625 717 625 717 567 c 0,17,18
 717 543 717 543 707.5 505 c 128,-1,19
 698 467 698 467 675 408.5 c 128,-1,20
 652 350 652 350 602 272 c 128,-1,21
 552 194 552 194 482 113 c 0,22,23
 406 25 406 25 306 -55 c 128,-1,24
 206 -135 206 -135 154 -135 c 0,25,26
 96 -135 96 -135 63.5 -97 c 128,-1,27
 31 -59 31 -59 31 -21 c 0,28,29
 31 -3 31 -3 42 17.5 c 128,-1,30
 53 38 53 38 62 38 c 0,31,32
 67 38 67 38 71 25 c 0,33,34
 78 -4 78 -4 94 -22.5 c 128,-1,35
 110 -41 110 -41 130 -48 c 128,-1,36
 150 -55 150 -55 160 -56.5 c 128,-1,37
 170 -58 170 -58 179 -58 c 0,38,39
 201 -58 201 -58 239 -36 c 128,-1,40
 277 -14 277 -14 301 4.5 c 128,-1,41
 325 23 325 23 330 28 c 0,42,43
 332 29 332 29 333 39 c 0,44,45
 338 104 338 104 338 181 c 0,46,47
 338 332 338 332 312 441 c 0,48,49
 267 632 267 632 137 633 c 1,50,51
 111 599 111 599 78 599 c 0,52,53
 68 599 68 599 68 607 c 0,54,55
 68 623 68 623 110 653 c 128,-1,56
 152 683 152 683 198 683 c 0,57,58
 241 683 241 683 275.5 662 c 128,-1,59
 310 641 310 641 332 609.5 c 128,-1,60
 354 578 354 578 370 531.5 c 128,-1,61
 386 485 386 485 394 445 c 128,-1,62
 402 405 402 405 406 354.5 c 128,-1,63
 410 304 410 304 411 276.5 c 128,-1,64
 412 249 412 249 412 217 c 0,65,66
 412 148 412 148 408 97 c 1,0,1
EndSplineSet
Validated: 19457
EndChar

StartChar: Z
Encoding: 90 90 25
Width: 724
VWidth: 1000
Flags: W
HStem: 0 62<330.469 557.711> 28 62<121.139 373.093> 351 43<298.007 410 468 531> 351 35<295.799 409.688> 593 62<527.05 640.653> 621 62<355.413 547.584>
LayerCount: 2
Fore
SplineSet
468 351 m 1,0,-1
 178 86 l 1,1,2
 197 90 197 90 227 90 c 0,3,4
 272 90 272 90 405 74 c 0,5,6
 497 62 497 62 562 62 c 1,7,8
 592 96 592 96 609 150 c 0,9,10
 615 170 615 170 647.5 189 c 128,-1,11
 680 208 680 208 697 208 c 0,12,13
 706 208 706 208 706 201 c 0,14,15
 706 195 706 195 699.5 176.5 c 128,-1,16
 693 158 693 158 673.5 126 c 128,-1,17
 654 94 654 94 627 70 c 0,18,19
 550 0 550 0 463 0 c 0,20,21
 402 0 402 0 299 15 c 0,22,23
 179 28 179 28 143 28 c 0,24,25
 110 28 110 28 92 18 c 0,26,27
 63 0 63 0 45 0 c 0,28,29
 37 0 37 0 37 7 c 0,30,31
 37 15 37 15 69 42 c 0,32,33
 197 150 197 150 226 179 c 0,34,35
 384 321 384 321 410 351 c 1,36,-1
 319 351 l 2,37,38
 293 351 293 351 293 360 c 0,39,40
 293 364 293 364 297 371 c 128,-1,41
 301 378 301 378 316 386 c 128,-1,42
 331 394 331 394 355 394 c 2,43,-1
 455 394 l 1,44,45
 561 503 561 503 641 596 c 1,46,47
 630 593 630 593 606 593 c 0,48,49
 573 593 573 593 479 610 c 0,50,51
 419 621 419 621 382 621 c 0,52,53
 335 621 335 621 317 607 c 128,-1,54
 299 593 299 593 288 560 c 0,55,56
 282 541 282 541 249.5 522.5 c 128,-1,57
 217 504 217 504 200 504 c 0,58,59
 191 504 191 504 191 512 c 0,60,61
 191 517 191 517 195.5 530 c 128,-1,62
 200 543 200 543 224.5 573 c 128,-1,63
 249 603 249 603 289 628 c 0,64,65
 380 683 380 683 466 683 c 0,66,67
 502 683 502 683 596 666 c 0,68,69
 654 655 654 655 697 655 c 1,70,71
 734 683 734 683 759 683 c 0,72,73
 767 683 767 683 767 676 c 0,74,75
 767 668 767 668 688 579.5 c 128,-1,76
 609 491 609 491 539 421 c 0,77,78
 536 418 536 418 529.5 411.5 c 128,-1,79
 523 405 523 405 519 400.5 c 128,-1,80
 515 396 515 396 515 395 c 0,81,82
 515 393 515 393 531 393 c 0,83,84
 596 390 596 390 596 362 c 0,85,86
 596 347 596 347 579.5 335.5 c 128,-1,87
 563 324 563 324 549 324 c 0,88,89
 536 324 536 324 536 334 c 0,90,91
 536 335 536 335 535 337.5 c 128,-1,92
 534 340 534 340 533 341 c 0,93,94
 523 350 523 350 468 351 c 1,0,-1
EndSplineSet
Validated: 19457
EndChar

StartChar: lparenBigg
Encoding: 0 40 26
Width: 269
VWidth: 1069
Flags: W
VStem: 81 34<59.176 444.997> 245 15<-246.094 -244 744 746.094>
LayerCount: 2
Fore
SplineSet
245 -249 m 0,0,1
 81 -82 81 -82 81 250 c 128,-1,2
 81 582 81 582 245 749 c 0,3,4
 245 750 245 750 247 750 c 2,5,-1
 257 750 l 2,6,7
 260 750 260 750 260 746 c 2,8,-1
 260 745 l 1,9,-1
 259 744 l 1,10,11
 115 579 115 579 115 250 c 0,12,13
 115 -80 115 -80 259 -244 c 1,14,-1
 260 -245 l 1,15,-1
 260 -246 l 2,16,17
 260 -250 260 -250 257 -250 c 2,18,-1
 247 -250 l 2,19,20
 245 -250 245 -250 245 -249 c 0,0,1
EndSplineSet
Validated: 19457
EndChar

StartChar: rparenBigg
Encoding: 1 41 27
Width: 269
VWidth: 1069
Flags: W
VStem: 156 34<59.3001 445.129>
LayerCount: 2
Fore
SplineSet
14 -250 m 2,0,1
 11 -250 11 -250 11 -246 c 0,2,3
 11 -245 11 -245 12 -244 c 0,4,5
 156 -79 156 -79 156 250 c 0,6,7
 156 580 156 580 12 744 c 0,8,9
 11 745 11 745 11 746 c 0,10,11
 11 750 11 750 14 750 c 2,12,-1
 24 750 l 2,13,14
 25 750 25 750 26 749 c 0,15,16
 190 582 190 582 190 250 c 128,-1,17
 190 -82 190 -82 26 -249 c 0,18,19
 25 -250 25 -250 24 -250 c 2,20,-1
 14 -250 l 2,0,1
EndSplineSet
Validated: 19457
EndChar

StartChar: lbrackBigg
Encoding: 2 91 28
Width: 198
VWidth: 1069
Flags: W
HStem: -250 23<116 197> 727 23<116 197>
VStem: 93 104<-250 -227 727 750> 93 23<-227 727>
LayerCount: 2
Fore
SplineSet
93 -250 m 5,0,-1
 93 750 l 1,1,-1
 197 750 l 1,2,-1
 197 727 l 1,3,-1
 116 727 l 1,4,-1
 116 -227 l 1,5,-1
 197 -227 l 1,6,-1
 197 -250 l 1,7,-1
 93 -250 l 5,0,-1
EndSplineSet
Validated: 8408065
EndChar

StartChar: rbrackBigg
Encoding: 3 93 29
Width: 198
VWidth: 1069
Flags: W
HStem: -250 23<3 84> 727 23<3 84>
VStem: 3 104<-250 -227 727 750> 84 23<-227 727>
LayerCount: 2
Fore
SplineSet
3 -250 m 1,0,-1
 3 -227 l 1,1,-1
 84 -227 l 1,2,-1
 84 727 l 1,3,-1
 3 727 l 1,4,-1
 3 750 l 1,5,-1
 107 750 l 1,6,-1
 107 -250 l 1,7,-1
 3 -250 l 1,0,-1
EndSplineSet
Validated: 8408065
EndChar

StartChar: lbraceBigg
Encoding: 4 123 30
Width: 274
VWidth: 1069
Flags: W
HStem: 243 15<50.9531 60.7799>
VStem: 121 34<-182.845 185.517 314.913 682.415>
LayerCount: 2
Fore
SplineSet
142 -192 m 0,0,1
 121 -160 121 -160 121 -124 c 2,2,-1
 121 122 l 2,3,4
 121 159 121 159 102 191.5 c 128,-1,5
 83 224 83 224 51 243 c 0,6,7
 49 243 49 243 49 245 c 2,8,-1
 49 255 l 2,9,10
 49 258 49 258 51 258 c 0,11,12
 83 277 83 277 102 309 c 128,-1,13
 121 341 121 341 121 378 c 2,14,-1
 121 624 l 2,15,16
 121 660 121 660 142 692 c 0,17,18
 161 719 161 719 186 735 c 0,19,20
 207 749 207 749 214 750 c 2,21,-1
 223 750 l 2,22,23
 226 750 226 750 226 747 c 2,24,-1
 226 737 l 2,25,26
 226 735 226 735 225 734 c 0,27,28
 194 717 194 717 174.5 687.5 c 128,-1,29
 155 658 155 658 155 623 c 2,30,-1
 155 377 l 2,31,32
 155 337 155 337 131 303.5 c 128,-1,33
 107 270 107 270 70 250 c 1,34,35
 107 231 107 231 131 197.5 c 128,-1,36
 155 164 155 164 155 124 c 2,37,-1
 155 -123 l 2,38,39
 155 -158 155 -158 174.5 -188 c 128,-1,40
 194 -218 194 -218 225 -235 c 0,41,42
 226 -235 226 -235 226 -237 c 2,43,-1
 226 -247 l 2,44,45
 226 -250 226 -250 223 -250 c 2,46,-1
 214 -250 l 2,47,48
 207 -249 207 -249 186 -235 c 0,49,50
 161 -219 161 -219 142 -192 c 0,0,1
EndSplineSet
Validated: 19457
EndChar

StartChar: rbraceBigg
Encoding: 5 125 31
Width: 274
VWidth: 1069
Flags: W
HStem: 243 15<215.22 225.046>
VStem: 121 34<-182.845 185.517 314.913 682.415>
LayerCount: 2
Fore
SplineSet
49 -247 m 2,0,-1
 49 -237 l 2,1,2
 49 -235 49 -235 51 -235 c 0,3,4
 82 -218 82 -218 101.5 -188 c 128,-1,5
 121 -158 121 -158 121 -123 c 2,6,-1
 121 124 l 2,7,8
 121 164 121 164 145 197.5 c 128,-1,9
 169 231 169 231 206 250 c 1,10,11
 169 270 169 270 145 303.5 c 128,-1,12
 121 337 121 337 121 377 c 2,13,-1
 121 623 l 2,14,15
 121 658 121 658 101.5 687.5 c 128,-1,16
 82 717 82 717 51 734 c 0,17,18
 49 736 49 736 49 737 c 2,19,-1
 49 747 l 2,20,21
 49 750 49 750 53 750 c 2,22,-1
 62 750 l 2,23,24
 68 749 68 749 89 735 c 0,25,26
 116 718 116 718 134 692 c 0,27,28
 155 660 155 660 155 624 c 2,29,-1
 155 378 l 2,30,31
 155 341 155 341 174 309 c 128,-1,32
 193 277 193 277 225 258 c 0,33,34
 226 258 226 258 226 255 c 2,35,-1
 226 245 l 2,36,37
 226 243 226 243 225 243 c 0,38,39
 193 224 193 224 174 191.5 c 128,-1,40
 155 159 155 159 155 122 c 2,41,-1
 155 -124 l 2,42,43
 155 -160 155 -160 134 -192 c 0,44,45
 116 -218 116 -218 89 -235 c 0,46,47
 68 -249 68 -249 62 -250 c 2,48,-1
 53 -250 l 2,49,50
 49 -250 49 -250 49 -247 c 2,0,-1
EndSplineSet
Validated: 19457
EndChar

StartChar: slashBigg
Encoding: 6 47 32
Width: 436
VWidth: 1069
Flags: W
VStem: 19 20<-249.952 -243> 398 20<743 749.952>
LayerCount: 2
Fore
SplineSet
19 -240 m 0,0,1
 19 -239 19 -239 20 -237 c 2,2,-1
 398 743 l 2,3,4
 400 748 400 748 408 750 c 0,5,6
 417 749 417 749 418 740 c 2,7,8
 418 737 l 1,9,-1
 39 -243 l 2,10,11
 37 -248 37 -248 29 -250 c 0,12,13
 20 -249 20 -249 19 -240 c 0,0,1
EndSplineSet
Validated: 19457
EndChar

StartChar: backslashBigg
Encoding: 7 92 33
Width: 436
VWidth: 1069
Flags: W
VStem: 19 20<744 749.952> 399 19<-249.9 -244>
LayerCount: 2
Fore
SplineSet
399 -244 m 2,0,-1
 20 737 l 2,1,2
 19 739 19 739 19 740 c 0,3,4
 20 749 20 749 29 750 c 0,5,6
 37 748 37 748 39 744 c 2,7,-1
 418 -237 l 1,8,9
 418 -240 l 2,10,11
 417 -249 417 -249 408 -250 c 0,12,13
 401 -248 401 -248 399 -244 c 2,0,-1
EndSplineSet
Validated: 19457
EndChar

StartChar: lceilBigg
Encoding: 8 8968 34
Width: 217
VWidth: 1069
Flags: W
HStem: 727 23<116 216>
VStem: 93 23<-250 727>
LayerCount: 2
Fore
SplineSet
93 -250 m 1,0,-1
 93 750 l 1,1,-1
 216 750 l 1,2,-1
 216 727 l 1,3,-1
 116 727 l 1,4,-1
 116 -250 l 1,5,-1
 93 -250 l 1,0,-1
EndSplineSet
Validated: 19457
EndChar

StartChar: rceilBigg
Encoding: 9 8969 35
Width: 217
VWidth: 1069
Flags: W
HStem: 727 23<3 103>
VStem: 103 23<-250 727>
LayerCount: 2
Fore
SplineSet
103 -250 m 1,0,-1
 103 727 l 1,1,-1
 3 727 l 1,2,-1
 3 750 l 1,3,-1
 126 750 l 1,4,-1
 126 -250 l 1,5,-1
 103 -250 l 1,0,-1
EndSplineSet
Validated: 19457
EndChar

StartChar: lfloorBigg
Encoding: 10 8970 36
Width: 217
VWidth: 1069
Flags: W
HStem: -250 23<116 216>
VStem: 93 23<-227 750>
LayerCount: 2
Fore
SplineSet
93 -250 m 1,0,-1
 93 750 l 1,1,-1
 116 750 l 1,2,-1
 116 -227 l 1,3,-1
 216 -227 l 1,4,-1
 216 -250 l 1,5,-1
 93 -250 l 1,0,-1
EndSplineSet
Validated: 19457
EndChar

StartChar: rfloorBigg
Encoding: 11 8971 37
Width: 217
VWidth: 1069
Flags: W
HStem: -250 23<3 103>
VStem: 103 23<-227 750>
LayerCount: 2
Fore
SplineSet
3 -250 m 1,0,-1
 3 -227 l 1,1,-1
 103 -227 l 1,2,-1
 103 750 l 1,3,-1
 126 750 l 1,4,-1
 126 -250 l 1,5,-1
 3 -250 l 1,0,-1
EndSplineSet
Validated: 19457
EndChar

StartChar: langleBigg
Encoding: 12 12296 38
Width: 274
VWidth: 1069
Flags: W
VStem: 217 22<-249.952 -243 743 749.952>
LayerCount: 2
Fore
SplineSet
217 -243 m 2,0,-1
 48 246 l 1,1,2
 48 249 l 1,3,-1
 48 251 l 1,4,5
 48 254 l 1,6,-1
 217 743 l 2,7,8
 220 749 220 749 227 750 c 2,9,-1
 229 750 l 2,10,11
 238 749 238 749 239 740 c 2,12,-1
 239 738 l 1,13,14
 239 735 l 1,15,-1
 71 250 l 1,16,-1
 239 -235 l 1,17,18
 239 -238 l 1,19,-1
 239 -240 l 2,20,21
 238 -249 238 -249 229 -250 c 2,22,-1
 227 -250 l 2,23,24
 220 -249 220 -249 217 -243 c 2,0,-1
EndSplineSet
Validated: 19457
EndChar

StartChar: rangleBigg
Encoding: 13 12297 39
Width: 274
VWidth: 1069
Flags: W
VStem: 36 22<-249.952 -243 743 749.952>
LayerCount: 2
Fore
SplineSet
47 -250 m 1,0,1
 37 -248 37 -248 36 -240 c 2,2,-1
 36 -238 l 2,3,4
 36 -236 36 -236 37 -235 c 2,5,-1
 204 250 l 1,6,-1
 37 734 l 2,7,8
 36 736 36 736 36 738 c 2,9,-1
 36 740 l 2,10,11
 37 748 37 748 47 750 c 2,12,-1
 49 750 l 2,13,14
 55 749 55 749 58 743 c 2,15,-1
 227 254 l 2,16,17
 228 252 228 252 228 251 c 2,18,-1
 228 249 l 1,19,20
 228 247 l 1,21,-1
 58 -243 l 2,22,23
 55 -249 55 -249 49 -250 c 2,24,-1
 47 -250 l 1,0,1
EndSplineSet
Validated: 19457
EndChar
